<svg width="19" height="19" viewBox="0 0 19 19" fill="none" xmlns="http://www.w3.org/2000/svg">
<g clip-path="url(#clip0_53_254)">
<path d="M0.508789 18.8303L2.07798 12.5111L11.7052 2.88391L16.4552 7.63392L6.82798 17.2611L0.508789 18.8303ZM3.18067 13.1049L2.1628 17.1763L6.23424 16.1585L14.8012 7.5915L11.7476 4.53793L3.18067 13.1049Z" fill="black"/>
<path d="M5.80992 16.8794C5.38582 15.2254 4.11349 13.9531 2.45947 13.529L2.75635 12.3415C4.83448 12.8504 6.44608 14.462 6.95501 16.5401L5.80992 16.8794Z" fill="black"/>
<path d="M5.68269 14.5468L4.83447 13.6562L13.2742 5.21649L14.1224 6.06471L5.68269 14.5468Z" fill="black"/>
<path d="M1.35693 17.9822L3.223 17.5156C3.05336 16.8371 2.50202 16.2857 1.82345 16.1161L1.35693 17.9822Z" fill="black"/>
<path d="M16.9219 7.1674L12.1719 2.41739L14.0804 0.508911L14.3772 0.551324C16.6674 0.848199 18.4911 2.67186 18.7879 4.96204L18.8304 5.25892L16.9219 7.1674ZM13.9107 2.41739L16.9643 5.47097L17.558 4.87722C17.2187 3.35044 16.0312 2.16293 14.5045 1.82365L13.9107 2.41739Z" fill="black"/>
</g>
<defs>
<clipPath id="clip0_53_254">
<rect width="19" height="19" fill="white"/>
</clipPath>
</defs>
</svg>
