<svg width="199" height="44" viewBox="0 0 199 44" fill="none" xmlns="http://www.w3.org/2000/svg">
<mask id="mask0_1_7" style="mask-type:luminance" maskUnits="userSpaceOnUse" x="0" y="11" width="198" height="21">
<path d="M197.593 11.46H0.260254V31.8562H197.593V11.46Z" fill="white"/>
</mask>
<g mask="url(#mask0_1_7)">
<path d="M43.67 18.0395V31.4051H36.3476V18.0395H29.415V11.9111H50.5781V18.0395H43.67Z" fill="#F47D32"/>
<path d="M19.7783 11.9111H27.1007V31.4051H19.7783V11.9111Z" fill="#F47D32"/>
<path d="M7.27148 25.1914V31.4051H0.259766V11.9111H17.1829V17.5887H7.27148V19.5138H16.3788V25.1914H7.27148Z" fill="#F47D32"/>
<path d="M105.289 17.5887V21.2682H108.463C109.505 21.2682 110.254 21.122 110.723 20.8235C111.186 20.525 111.418 20.062 111.418 19.4285C111.418 18.7401 111.186 18.2649 110.723 17.9908C110.254 17.7228 109.432 17.5887 108.244 17.5887H105.289ZM98.1558 31.4051V11.9111H109.188C112.587 11.9111 115.055 12.496 116.596 13.6778C118.137 14.8535 118.911 16.6689 118.911 19.1239C118.911 22.0358 117.668 24.0766 115.176 25.2523L120.275 31.4051H112.283L108.408 26.3915H105.484V31.4051H98.1558Z" fill="#F47D32"/>
<path d="M197.594 31.4051H179.824V11.9111H197.594V17.5644H187.152V19.0934H196.314V24.2167H187.152V25.7518H197.594V31.4051Z" fill="#F47D32"/>
<path d="M176.984 24.6679V30.8207C174.98 31.4908 172.519 31.8258 169.601 31.8258C165.056 31.8258 161.736 30.979 159.659 29.2916C157.575 27.5981 156.54 25.137 156.54 21.9083C156.54 18.4907 157.6 15.9017 159.726 14.1351C161.852 12.3745 165.318 11.4912 170.131 11.4912C171.934 11.4912 174.206 11.7775 176.954 12.3563V18.4542C175.004 17.8937 173.122 17.6196 171.3 17.6196C168.778 17.6196 166.981 17.8937 165.909 18.4542C164.843 19.0086 164.307 20.0807 164.307 21.6585C164.307 23.1449 164.849 24.1866 165.921 24.7897C166.999 25.3928 168.797 25.6974 171.3 25.6974C173.14 25.6974 175.035 25.3502 176.984 24.6679Z" fill="#F47D32"/>
<path d="M146.373 11.9111H153.696V31.4051H146.373V11.9111Z" fill="#F47D32"/>
<path d="M144.534 11.9111L137.017 31.4051H127.209L119.716 11.9111H127.684L132.332 25.4716L137.072 11.9111H144.534Z" fill="#F47D32"/>
<path d="M95.2312 25.7518V31.4051H77.1323V11.9111H95.2312V17.5644H84.4547V19.0934H93.6169V24.2167H84.4547V25.7518H95.2312Z" fill="#F47D32"/>
<path d="M56.0419 30.7354V25.1674C56.6754 25.4659 57.6623 25.734 58.9964 25.9715C60.3305 26.2152 61.7438 26.3371 63.2302 26.3371C64.473 26.3371 65.3441 26.2822 65.8315 26.1726C66.3249 26.0568 66.5747 25.8436 66.5747 25.5268C66.5747 25.4355 66.5564 25.3563 66.532 25.2893C66.5016 25.2283 66.4406 25.1674 66.3371 25.1126C66.2335 25.0578 66.13 25.0151 66.0325 24.9847C65.9289 24.9603 65.7705 24.9176 65.5573 24.875C65.3441 24.8263 65.1309 24.7836 64.9177 24.7471C64.7045 24.7105 64.4121 24.6557 64.0526 24.5826C63.6932 24.5095 63.3399 24.4364 63.0109 24.3572L62.0606 24.1623C59.7762 23.7176 58.1496 22.95 57.1749 21.8534C56.2002 20.7569 55.7129 19.4837 55.7129 18.0399C55.7129 15.9017 56.5475 14.2752 58.2166 13.1604C59.8858 12.0456 62.3104 11.4912 65.4842 11.4912C68.6824 11.4912 71.2532 11.7958 73.2026 12.4111V17.8694C70.9364 17.3516 68.6093 17.0896 66.2092 17.0896C65.0761 17.0896 64.278 17.1444 63.8029 17.2541C63.3277 17.3698 63.0901 17.5648 63.0901 17.8389C63.0901 18.1191 63.2729 18.3263 63.6323 18.4542C63.9978 18.5821 64.6618 18.7283 65.6426 18.8867C66.6173 19.0451 67.4336 19.2035 68.1037 19.3741L69.1332 19.6238C70.248 19.8858 71.1801 20.2208 71.9355 20.6412C72.6848 21.0615 73.2513 21.5306 73.6351 22.0606C74.0128 22.5906 74.2809 23.1084 74.4271 23.6079C74.5733 24.1074 74.6525 24.6679 74.6525 25.2771C74.6525 27.4153 73.7387 29.0418 71.905 30.1505C70.0775 31.2654 67.5006 31.8258 64.1745 31.8258C60.9275 31.8258 58.2166 31.4603 56.0419 30.7354Z" fill="#F47D32"/>
</g>
</svg>
