<svg width="17" height="19" viewBox="0 0 17 19" fill="none" xmlns="http://www.w3.org/2000/svg">
<g clip-path="url(#clip0_53_250)">
<path d="M16.3929 2.96875H13.2668L11.9767 0.862793C11.6154 0.327564 11.0576 0 10.4201 0H6.57991C5.94241 0 5.35045 0.327564 5.02411 0.862793L3.73317 2.96875H0.607143C0.270368 2.96875 0 3.23334 0 3.5625V4.15625C0 4.48652 0.270368 4.75 0.607143 4.75H1.21429V16.625C1.21429 17.9368 2.30145 19 3.64286 19H13.3571C14.6985 19 15.7857 17.9368 15.7857 16.625V4.75H16.3929C16.7306 4.75 17 4.48652 17 4.15625V3.5625C17 3.23334 16.7306 2.96875 16.3929 2.96875ZM6.52299 1.88813C6.56094 1.82318 6.63683 1.78125 6.71652 1.78125H10.2835C10.3641 1.78125 10.44 1.823 10.478 1.88794L11.1411 2.96875H5.85893L6.52299 1.88813ZM13.3571 17.2188H3.64286C3.30752 17.2188 3.03571 16.9529 3.03571 16.625V4.75H13.9643V16.625C13.9643 16.9516 13.6911 17.2188 13.3571 17.2188ZM8.5 15.4375C8.8356 15.4375 9.10714 15.1719 9.10714 14.8438V7.125C9.10714 6.7968 8.8356 6.53125 8.5 6.53125C8.1644 6.53125 7.89286 6.79844 7.89286 7.125V14.8438C7.89286 15.1703 8.16607 15.4375 8.5 15.4375ZM5.46429 15.4375C5.79821 15.4375 6.07143 15.1703 6.07143 14.8438V7.125C6.07143 6.7968 5.79988 6.53125 5.46429 6.53125C5.12869 6.53125 4.85714 6.79844 4.85714 7.125V14.8438C4.85714 15.1703 5.13036 15.4375 5.46429 15.4375ZM11.5357 15.4375C11.8713 15.4375 12.1429 15.1719 12.1429 14.8438V7.125C12.1429 6.7968 11.8713 6.53125 11.5357 6.53125C11.2001 6.53125 10.9286 6.79844 10.9286 7.125V14.8438C10.9286 15.1703 11.2018 15.4375 11.5357 15.4375Z" fill="black"/>
</g>
<defs>
<clipPath id="clip0_53_250">
<rect width="17" height="19" fill="white"/>
</clipPath>
</defs>
</svg>
